HIERARCHY
ROOT joint_Root
{
  OFFSET 0 0 0
  CHANNELS 6 Xposition Yposition Zposition Zrotation Xrotation Yrotation
  JOINT Hips
  {
    OFFSET 0.847027 93.984 -452.225
    CHANNELS 6 Xposition Yposition Zposition Zrotation Xrotation Yrotation
    JOINT Spine
    {
      OFFSET 15.7357 0 0
      CHANNELS 6 Xposition Yposition Zposition Zrotation Xrotation Yrotation
      JOINT Chest
      {
        OFFSET 8.98455 -0.406207 0
        CHANNELS 6 Xposition Yposition Zposition Zrotation Xrotation Yrotation
        JOINT Neck
        {
          OFFSET 16.3773 0 0
          CHANNELS 6 Xposition Yposition Zposition Zrotation Xrotation Yrotation
          JOINT Head
          {
            OFFSET 6.45672 0 0
            CHANNELS 6 Xposition Yposition Zposition Zrotation Xrotation Yrotation
            End Site
            {
              OFFSET 0 0 0
            }
          }
        }
        JOINT Shoulder_L
        {
          OFFSET 12.9942 -0.242716 4.98039
          CHANNELS 6 Xposition Yposition Zposition Zrotation Xrotation Yrotation
          JOINT UpperArm_L
          {
            OFFSET 5.34809 0 0
            CHANNELS 6 Xposition Yposition Zposition Zrotation Xrotation Yrotation
            JOINT LowerArm_L
            {
              OFFSET 24.3286 1.87007e-05 0
              CHANNELS 6 Xposition Yposition Zposition Zrotation Xrotation Yrotation
              JOINT Hand_L
              {
                OFFSET 22.2916 0 0
                CHANNELS 6 Xposition Yposition Zposition Zrotation Xrotation Yrotation
                End Site
                {
                  OFFSET 0 0 0
                }
              }
            }
          }
        }
        JOINT Shoulder_R
        {
          OFFSET 12.9945 -0.242716 -4.98039
          CHANNELS 6 Xposition Yposition Zposition Zrotation Xrotation Yrotation
          JOINT UpperArm_R
          {
            OFFSET -5.34813 0 0
            CHANNELS 6 Xposition Yposition Zposition Zrotation Xrotation Yrotation
            JOINT LowerArm_R
            {
              OFFSET -24.3289 0.000322201 0
              CHANNELS 6 Xposition Yposition Zposition Zrotation Xrotation Yrotation
              JOINT Hand_R
              {
                OFFSET -22.2915 -0.000108084 0
                CHANNELS 6 Xposition Yposition Zposition Zrotation Xrotation Yrotation
                End Site
                {
                  OFFSET 0 0 0
                }
              }
            }
          }
        }
      }
    }
    JOINT UpperLeg_L
    {
      OFFSET -2.19248 -6.46944 0
      CHANNELS 6 Xposition Yposition Zposition Zrotation Xrotation Yrotation
      JOINT LowerLeg_L
      {
        OFFSET 39.0811 0 -1.23785e-05
        CHANNELS 6 Xposition Yposition Zposition Zrotation Xrotation Yrotation
        JOINT Foot_L
        {
          OFFSET 40.9854 0 -1.26872e-05
          CHANNELS 6 Xposition Yposition Zposition Zrotation Xrotation Yrotation
          JOINT Toes_L
          {
            OFFSET 11.7543 0 0
            CHANNELS 6 Xposition Yposition Zposition Zrotation Xrotation Yrotation
            End Site
            {
              OFFSET 0 0 0
            }
          }
        }
      }
    }
    JOINT UpperLeg_R
    {
      OFFSET -2.19251 6.46944 0
      CHANNELS 6 Xposition Yposition Zposition Zrotation Xrotation Yrotation
      JOINT LowerLeg_R
      {
        OFFSET -39.0811 -0.00228153 -0.0401928
        CHANNELS 6 Xposition Yposition Zposition Zrotation Xrotation Yrotation
        JOINT Foot_R
        {
          OFFSET -40.9854 0 0
          CHANNELS 6 Xposition Yposition Zposition Zrotation Xrotation Yrotation
          JOINT Toes_R
          {
            OFFSET -11.7543 0 0
            CHANNELS 6 Xposition Yposition Zposition Zrotation Xrotation Yrotation
            End Site
            {
              OFFSET 0 0 0
            }
          }
        }
      }
    }
  }
}
MOTION
Frames:	7
Frame Time:	0.0333333
0 0 0 0 0 -0 -1.01483 92.4726 0.524575 90.7442 0.313762 0.862273 15.7357 5.1072e-06 -5.51765e-07 -2.20598 89.2995 1.27967 8.98455 -0.406207 -4.3199e-07 -7.83072 -1.27039 -1.94345 16.3773 -1.3905e-06 -6.99897e-07 -2.24901 -5.0731 2.79617 6.45672 -1.25837e-06 -1.02172e-07 11.8028 -3.60721 1.11696 12.9942 -0.242716 4.98039 -90.9594 4.02394 -91.5795 5.34809 -7.22636e-06 -6.2814e-07 -71.4796 16.7331 21.315 24.3286 1.87007e-05 4.90208e-06 -8.46911 -11.6397 -36.4281 22.2916 -9.88446e-07 4.63217e-06 7.32587 5.63948 -14.0836 12.9945 -0.242716 -4.98039 88.2477 10.7957 -95.7237 -5.34813 -1.25947e-06 -3.79883e-06 -63.0914 10.1567 30.9422 -24.3289 0.000322201 -8.65921e-06 -11.9075 -13.0128 -43.1183 -22.2915 -0.000108084 -4.47941e-06 0.385928 5.60618 -11.7192 -2.19248 -6.46944 -1.22534e-07 -174.181 -7.31414 -3.07325 39.0811 -6.73843e-06 -1.23785e-05 -0.0315455 0.144003 16.1998 40.9854 -6.48686e-06 -1.26872e-05 -5.77899 -0.614502 -61.7654 11.7543 -2.30145e-07 3.05095e-06 0.0344119 -0.054009 -17.5396 -2.19251 6.46944 -1.45247e-06 173.726 13.8606 175.418 -39.0811 -0.00228153 -0.0401928 -0.0395452 0.164356 19.5183 -40.9854 7.72618e-06 5.99936e-06 -4.54537 -0.582467 -63.1251 -11.7543 -5.6619e-06 -5.58687e-06 0.0897368 -0.101532 -17.5704 
0 0 0 0 0 -0 -1.13918 92.4788 0.519893 90.7715 0.820097 0.820425 15.7357 5.1072e-06 -5.51765e-07 -1.66134 89.1291 0.739817 8.98455 -0.406207 -4.3199e-07 -7.83068 -1.61128 -1.95723 16.3773 -1.3905e-06 -6.99897e-07 -2.95637 -4.9556 2.57684 6.45672 -1.25837e-06 -1.02172e-07 11.2322 -3.59206 1.24978 12.9942 -0.242716 4.98039 -90.7964 3.2966 -91.41 5.34809 -7.22636e-06 -6.2814e-07 -72.4335 16.878 21.6883 24.3286 1.87007e-05 4.90208e-06 -8.78593 -11.7587 -37.1771 22.2916 -9.88446e-07 4.63217e-06 6.85114 5.63749 -13.9178 12.9945 -0.242716 -4.98039 88.2541 10.2754 -95.3025 -5.34813 -1.25947e-06 -3.79883e-06 -63.323 9.74177 31.2354 -24.3289 0.000322201 -8.65921e-06 -12.2812 -12.9779 -44.1056 -22.2915 -0.000108084 -4.47941e-06 -0.11009 5.60598 -11.7047 -2.19248 -6.46944 -1.22534e-07 -174.135 -6.92723 -3.13132 39.0811 -6.73843e-06 -1.23785e-05 -0.0305672 0.14148 16.0307 40.9854 -6.48686e-06 -1.26872e-05 -5.84177 -0.50051 -61.6078 11.7543 -2.30145e-07 3.05095e-06 0.0342945 -0.0537942 -17.5361 -2.19251 6.46944 -1.45247e-06 173.818 13.8692 175.446 -39.0811 -0.00228153 -0.0401928 -0.0378967 0.160134 19.5389 -40.9854 7.72618e-06 5.99936e-06 -4.54891 -1.06742 -63.2314 -11.7543 -5.6619e-06 -5.58687e-06 0.0920258 -0.104164 -17.5961 
0 0 0 0 0 -0 -1.25675 92.4818 0.533038 90.7195 1.07103 0.790213 15.7357 5.1072e-06 -5.51765e-07 -4.34504 89.0622 3.45667 8.98455 -0.406207 -4.3199e-07 -7.92326 -1.7437 -1.90139 16.3773 -1.3905e-06 -6.99897e-07 -2.97905 -4.66604 2.43162 6.45672 -1.25837e-06 -1.02172e-07 9.94455 -3.33081 1.36758 12.9942 -0.242716 4.98039 -90.8554 3.17839 -89.931 5.34809 -7.22636e-06 -6.2814e-07 -71.9753 17.0835 21.1686 24.3286 1.87007e-05 4.90208e-06 -8.95706 -11.9041 -37.3836 22.2916 -9.88446e-07 4.63217e-06 6.3438 5.63399 -13.64 12.9945 -0.242716 -4.98039 87.987 10.0112 -93.5704 -5.34813 -1.25947e-06 -3.79883e-06 -62.7798 9.41548 30.274 -24.3289 0.000322201 -8.65921e-06 -12.0369 -12.9179 -43.6427 -22.2915 -0.000108084 -4.47941e-06 -0.41557 5.60543 -11.6721 -2.19248 -6.46944 -1.22534e-07 -174.009 -6.63657 -3.1459 39.0811 -6.73843e-06 -1.23785e-05 -0.0311017 0.144265 15.9325 40.9854 -6.48686e-06 -1.26872e-05 -5.9291 -0.512986 -61.5459 11.7543 -2.30145e-07 3.05095e-06 0.0365139 -0.0573662 -17.5992 -2.19251 6.46944 -1.45247e-06 173.998 13.5612 175.484 -39.0811 -0.00228153 -0.0401928 -0.0374497 0.158137 19.5014 -40.9854 7.72618e-06 5.99936e-06 -4.57657 -1.65254 -63.3116 -11.7543 -5.6619e-06 -5.58687e-06 0.0957546 -0.108461 -17.6379 
0 0 0 0 0 -0 -1.3588 92.4617 0.592104 90.7 1.21763 0.797054 15.7357 5.1072e-06 -5.51765e-07 -10.4018 89.0469 9.54651 8.98455 -0.406207 -4.3199e-07 -8.12511 -1.75122 -1.83889 16.3773 -1.3905e-06 -6.99897e-07 -2.28039 -4.37226 2.45551 6.45672 -1.25837e-06 -1.02172e-07 8.26565 -3.12075 1.41145 12.9942 -0.242716 4.98039 -91.1938 3.95574 -88.1934 5.34809 -7.22636e-06 -6.2814e-07 -70.3131 16.8262 20.6652 24.3286 1.87007e-05 4.90208e-06 -9.48585 -12.5515 -37.5555 22.2916 -9.88446e-07 4.63217e-06 5.83244 5.63225 -13.5062 12.9945 -0.242716 -4.98039 87.5858 10.0822 -91.4595 -5.34813 -1.25947e-06 -3.79883e-06 -61.4905 8.07723 28.9531 -24.3289 0.000322201 -8.65921e-06 -11.1687 -12.4963 -42.3776 -22.2915 -0.000108084 -4.47941e-06 -0.244515 5.60236 -11.4851 -2.19248 -6.46944 -1.22534e-07 -173.919 -6.38245 -3.16869 39.0811 -6.73843e-06 -1.23785e-05 -0.0333408 0.151297 16.0125 40.9854 -6.48686e-06 -1.26872e-05 -6.02198 -0.58996 -61.6139 11.7543 -2.30145e-07 3.05095e-06 0.0359205 -0.0564035 -17.5823 -2.19251 6.46944 -1.45247e-06 174.115 13.364 175.467 -39.0811 -0.00228153 -0.0401928 -0.0382644 0.159818 19.6699 -40.9854 7.72618e-06 5.99936e-06 -4.57052 -1.98442 -63.494 -11.7543 -5.6619e-06 -5.58687e-06 0.100412 -0.113843 -17.6902 
0 0 0 0 0 -0 -1.46872 92.4364 0.658852 90.6693 1.39021 0.968344 15.7357 5.1072e-06 -5.51765e-07 -13.9623 89.0427 13.0933 8.98455 -0.406207 -4.3199e-07 -8.24278 -1.73132 -1.86692 16.3773 -1.3905e-06 -6.99897e-07 -1.37407 -4.3907 2.78701 6.45672 -1.25837e-06 -1.02172e-07 7.30379 -2.93582 1.46459 12.9942 -0.242716 4.98039 -91.5635 5.06293 -87.8137 5.34809 -7.22636e-06 -6.2814e-07 -68.6838 15.8266 20.8269 24.3286 1.87007e-05 4.90208e-06 -11.328 -15.0094 -37.7246 22.2916 -9.88446e-07 4.63217e-06 5.47897 5.6298 -13.3216 12.9945 -0.242716 -4.98039 87.3184 10.7575 -90.9134 -5.34813 -1.25947e-06 -3.79883e-06 -60.1724 5.4718 29.0356 -24.3289 0.000322201 -8.65921e-06 -11.9066 -13.5979 -41.8847 -22.2915 -0.000108084 -4.47941e-06 0.264319 5.60416 -11.5933 -2.19248 -6.46944 -1.22534e-07 -173.781 -6.34072 -3.04539 39.0811 -6.73843e-06 -1.23785e-05 -0.0348681 0.155645 16.1504 40.9854 -6.48686e-06 -1.26872e-05 -6.08555 -0.450447 -61.695 11.7543 -2.30145e-07 3.05095e-06 0.0374439 -0.0588572 -17.6256 -2.19251 6.46944 -1.45247e-06 174.156 13.4993 175.642 -39.0811 -0.00228153 -0.0401928 -0.0407261 0.166194 19.8438 -40.9854 7.72618e-06 5.99936e-06 -4.51812 -1.97417 -63.6663 -11.7543 -5.6619e-06 -5.58687e-06 0.100602 -0.114083 -17.6926 
0 0 0 0 0 -0 -1.5445 92.4059 0.660031 90.6551 1.47402 1.17277 15.7357 5.1072e-06 -5.51765e-07 -11.1086 89.0908 10.1958 8.98455 -0.406207 -4.3199e-07 -8.13097 -1.6528 -1.94707 16.3773 -1.3905e-06 -6.99897e-07 -1.04734 -4.60076 3.03072 6.45672 -1.25837e-06 -1.02172e-07 7.18898 -2.93768 1.64098 12.9942 -0.242716 4.98039 -91.648 5.52556 -88.3648 5.34809 -7.22636e-06 -6.2814e-07 -68.0898 15.4025 20.2812 24.3286 1.87007e-05 4.90208e-06 -12.3601 -17.4412 -36.1716 22.2916 -9.88446e-07 4.63217e-06 5.2241 5.62808 -13.1945 12.9945 -0.242716 -4.98039 87.3268 11.1017 -91.3701 -5.34813 -1.25947e-06 -3.79883e-06 -60.0752 3.9797 28.7844 -24.3289 0.000322201 -8.65921e-06 -12.2344 -14.7604 -40.3966 -22.2915 -0.000108084 -4.47941e-06 1.11427 5.60725 -11.7846 -2.19248 -6.46944 -1.22534e-07 -173.678 -6.3553 -2.97596 39.0811 -6.73843e-06 -1.23785e-05 -0.0374501 0.163155 16.3896 40.9854 -6.48686e-06 -1.26872e-05 -6.12568 -0.315475 -61.7873 11.7543 -2.30145e-07 3.05095e-06 0.0375806 -0.0590546 -17.6293 -2.19251 6.46944 -1.45247e-06 174.174 13.5538 175.733 -39.0811 -0.00228153 -0.0401928 -0.0413478 0.16731 20.1149 -40.9854 7.72618e-06 5.99936e-06 -4.47221 -1.98052 -63.8255 -11.7543 -5.6619e-06 -5.58687e-06 0.0985513 -0.111685 -17.6692 
0 0 0 0 0 -0 -1.59334 92.4095 0.61635 90.6541 1.62203 1.29433 15.7357 5.1072e-06 -5.51765e-07 -7.94724 89.1419 6.9736 8.98455 -0.406207 -4.3199e-07 -8.01766 -1.56111 -2.06101 16.3773 -1.3905e-06 -6.99897e-07 -1.07897 -4.96409 3.20477 6.45672 -1.25837e-06 -1.02172e-07 7.22515 -3.18134 1.67629 12.9942 -0.242716 4.98039 -91.5967 5.57155 -88.9809 5.34809 -7.22636e-06 -6.2814e-07 -67.9285 16.237 19.4234 24.3286 1.87007e-05 4.90208e-06 -10.6938 -16.3158 -33.9074 22.2916 -9.88446e-07 4.63217e-06 5.32947 5.62931 -13.286 12.9945 -0.242716 -4.98039 87.3727 11.0726 -91.5622 -5.34813 -1.25947e-06 -3.79883e-06 -60.7389 4.40383 28.1369 -24.3289 0.000322201 -8.65921e-06 -10.897 -13.9307 -38.6442 -22.2915 -0.000108084 -4.47941e-06 1.90445 5.61338 -12.1766 -2.19248 -6.46944 -1.22534e-07 -173.645 -6.17574 -2.89556 39.0811 -6.73843e-06 -1.23785e-05 -0.0359586 0.158681 16.3513 40.9854 -6.48686e-06 -1.26872e-05 -6.15211 -0.330432 -61.7233 11.7543 -2.30145e-07 3.05095e-06 0.036233 -0.0569171 -17.5913 -2.19251 6.46944 -1.45247e-06 174.201 13.4956 175.844 -39.0811 -0.00228153 -0.0401928 -0.0396777 0.162127 20.1259 -40.9854 7.72618e-06 5.99936e-06 -4.46655 -2.17392 -63.8376 -11.7543 -5.6619e-06 -5.58687e-06 0.101308 -0.114864 -17.7002 
